<svg xmlns="http://www.w3.org/2000/svg" viewBox="0 0 420 760" role="img" aria-labelledby="title desc">
  <title id="title">Green pearl charm</title>
  <desc id="desc">A green chain charm with pearl details, rhinestones, and a floral centrepiece.</desc>
  <defs>
    <linearGradient id="bg" x1="0" x2="1" y1="0" y2="1">
      <stop stop-color="#f9f7fb"/>
      <stop offset="1" stop-color="#d9d1e6"/>
    </linearGradient>
    <radialGradient id="pearl" cx=".32" cy=".25" r=".7">
      <stop stop-color="#ffffff"/>
      <stop offset=".72" stop-color="#dbead5"/>
      <stop offset="1" stop-color="#a4d28f"/>
    </radialGradient>
    <filter id="shadow" x="-20%" y="-20%" width="140%" height="140%">
      <feDropShadow dx="0" dy="16" stdDeviation="12" flood-color="#5d3b4d" flood-opacity=".2"/>
    </filter>
  </defs>
  <rect width="420" height="760" fill="url(#bg)"/>
  <path d="M0 0h420v146c-78-8-131-16-193-6C123 156 58 111 0 98Z" fill="#6844a7" opacity=".92"/>
  <g fill="none" stroke="#62bf3d" stroke-width="14" stroke-linecap="round">
    <path d="M166 0c-20 72-9 128 31 169"/>
    <path d="M278 0c9 69-10 124-56 166"/>
    <path d="M197 166c23 16 48 16 74 1"/>
  </g>
  <g filter="url(#shadow)">
    <rect x="193" y="158" width="34" height="80" rx="17" fill="#62bf3d"/>
    <circle cx="210" cy="254" r="22" fill="#62bf3d"/>
    <ellipse cx="210" cy="491" rx="82" ry="93" fill="#a9dd7d" stroke="#5b4d52" stroke-width="5"/>
    <g transform="translate(210 384)">
      <circle r="104" fill="#eff8dd" stroke="#5b4d52" stroke-width="5"/>
      <g fill="url(#pearl)" stroke="#fff" stroke-width="4">
        <circle cx="0" cy="-100" r="16"/><circle cx="38" cy="-92" r="16"/><circle cx="72" cy="-72" r="16"/><circle cx="95" cy="-36" r="16"/>
        <circle cx="102" cy="0" r="16"/><circle cx="92" cy="39" r="16"/><circle cx="69" cy="72" r="16"/><circle cx="34" cy="96" r="16"/>
        <circle cx="0" cy="103" r="16"/><circle cx="-36" cy="94" r="16"/><circle cx="-72" cy="72" r="16"/><circle cx="-94" cy="36" r="16"/>
        <circle cx="-102" cy="0" r="16"/><circle cx="-94" cy="-38" r="16"/><circle cx="-70" cy="-72" r="16"/><circle cx="-35" cy="-94" r="16"/>
      </g>
      <g fill="#d4c1ec">
        <circle cx="-46" cy="-4" r="9"/><circle cx="-24" cy="-32" r="9"/><circle cx="13" cy="-40" r="9"/><circle cx="42" cy="-16" r="9"/>
        <circle cx="36" cy="23" r="9"/><circle cx="2" cy="42" r="9"/><circle cx="-35" cy="31" r="9"/>
      </g>
      <g fill="#b9d889" stroke="#6a8b48" stroke-width="4">
        <ellipse cx="0" cy="-34" rx="23" ry="44"/>
        <ellipse cx="32" cy="-9" rx="23" ry="44" transform="rotate(72 32 -9)"/>
        <ellipse cx="20" cy="30" rx="23" ry="44" transform="rotate(144 20 30)"/>
        <ellipse cx="-20" cy="30" rx="23" ry="44" transform="rotate(216 -20 30)"/>
        <ellipse cx="-32" cy="-9" rx="23" ry="44" transform="rotate(288 -32 -9)"/>
      </g>
      <circle r="18" fill="#fff8fa" stroke="#6a8b48" stroke-width="4"/>
    </g>
  </g>
</svg>
