<svg xmlns="http://www.w3.org/2000/svg" viewBox="0 0 420 760" role="img" aria-labelledby="title desc">
  <title id="title">Pastel acrylic beaded pen stack</title>
  <desc id="desc">A glossy pastel pen with stacked acrylic focals, bow details, and textured beads.</desc>
  <defs>
    <linearGradient id="bg" x1="0" x2="1">
      <stop stop-color="#ddd9d3"/>
      <stop offset="1" stop-color="#bfb9b0"/>
    </linearGradient>
    <linearGradient id="crystal" x1="0" x2="1" y1="0" y2="1">
      <stop stop-color="#ffb6ca"/>
      <stop offset=".55" stop-color="#f3d7ff"/>
      <stop offset="1" stop-color="#ffffff"/>
    </linearGradient>
    <filter id="shadow" x="-20%" y="-20%" width="140%" height="140%">
      <feDropShadow dx="0" dy="14" stdDeviation="12" flood-color="#5d3b4d" flood-opacity=".2"/>
    </filter>
  </defs>
  <rect width="420" height="760" fill="url(#bg)"/>
  <g filter="url(#shadow)">
    <rect x="171" y="485" width="78" height="245" rx="39" fill="#ffffff" stroke="#5b4d52" stroke-width="5"/>
    <rect x="151" y="345" width="118" height="155" rx="34" fill="url(#crystal)" stroke="#5b4d52" stroke-width="5"/>
    <g fill="#fff" opacity=".75">
      <circle cx="171" cy="372" r="11"/><circle cx="196" cy="389" r="12"/><circle cx="232" cy="370" r="10"/>
      <circle cx="178" cy="421" r="13"/><circle cx="218" cy="436" r="12"/><circle cx="246" cy="414" r="11"/>
      <circle cx="192" cy="470" r="12"/><circle cx="234" cy="469" r="13"/>
    </g>
    <circle cx="210" cy="293" r="72" fill="#ffc4cf" stroke="#5b4d52" stroke-width="5"/>
    <circle cx="185" cy="283" r="8" fill="#35272f"/>
    <circle cx="235" cy="283" r="8" fill="#35272f"/>
    <circle cx="184" cy="302" r="15" fill="#f1a1b4" opacity=".72"/>
    <circle cx="236" cy="302" r="15" fill="#f1a1b4" opacity=".72"/>
    <ellipse cx="210" cy="294" rx="8" ry="6" fill="#f3a542"/>
    <path d="M144 252c-20-12-39-2-43 17-4 18 9 35 32 36 9-21 22-34 43-43-9-4-19-7-32-10Zm132 0c20-12 39-2 43 17 4 18-9 35-32 36-9-21-22-34-43-43 9-4 19-7 32-10Z" fill="#ffb7c8" stroke="#5b4d52" stroke-width="5"/>
    <path d="M163 217c0-27 21-49 47-49s47 22 47 49" fill="none" stroke="#fff" stroke-width="28" stroke-linecap="round"/>
    <path d="M165 218c0-26 20-47 45-47s45 21 45 47" fill="none" stroke="#c7f4f0" stroke-width="13" stroke-linecap="round"/>
    <path d="M176 166c0-28 23-52 52-52h14v64h-66Z" fill="#f88cae" stroke="#5b4d52" stroke-width="5"/>
  </g>
</svg>
